PathFileType	4	(X/Y/Z)	40_1_15_p1_0-308_filt_butterworth.trc
DataRate	CameraRate	NumFrames	NumMarkers	Units	OrigDataRate	OrigDataStartFrame	OrigNumFrames
60.0	60.0	6	27	m	60.0	192	308
Frame#	Time	RHip			RKnee			RAnkle			RBigToe			RSmallToe			RHeel			LHip			LKnee			LAnkle			LBigToe			LSmallToe			LHeel			Neck			Head			Nose			RShoulder			RElbow			RWrist			RThumb			RIndex			RPinky			LShoulder			LElbow			LWrist			LThumb			LIndex			LPinky			
		X1	Y1	Z1	X2	Y2	Z2	X3	Y3	Z3	X4	Y4	Z4	X5	Y5	Z5	X6	Y6	Z6	X7	Y7	Z7	X8	Y8	Z8	X9	Y9	Z9	X10	Y10	Z10	X11	Y11	Z11	X12	Y12	Z12	X13	Y13	Z13	X14	Y14	Z14	X15	Y15	Z15	X16	Y16	Z16	X17	Y17	Z17	X18	Y18	Z18	X19	Y19	Z19	X20	Y20	Z20	X21	Y21	Z21	X22	Y22	Z22	X23	Y23	Z23	X24	Y24	Z24	X25	Y25	Z25	X26	Y26	Z26	X27	Y27	Z27	
192	3.2	0.30793274896567685	0.5609240043923981	0.8382166422660453	0.301738379383164	0.7040405337785438	1.2688451900667743	0.30610855869985276	0.8143589629892085	1.6521512805011367	0.3141752234573724	0.7247666581608071	1.7283665528416896	0.38138016794198726	0.7311660540752691	1.7182200287753209	0.2704904936417431	0.923003449596807	1.7206075486317085	0.12327444413522652	0.5429574101404241	0.8401113220431147	0.10028553352208178	0.7283831662630283	1.2642389414119828	0.08607521932240804	0.8591980916975694	1.6761259647462965	0.14440451106918828	0.6602977038823039	1.6983833159945818	0.08083513318773526	0.7090351188234807	1.7222772063355802	0.07112294402260357	0.9529856731194437	1.7452405478013513	0.2255501496547794	0.4037357677712754	0.31951042317545103	0.2371278708268707	0.30669192028761155	0.1083396814310623	0.24897520017951102	0.26753234871327025	0.2395737926419485	0.3663954420174517	0.48710226768111925	0.38321708301155527	0.40715482425730604	0.5566021746613832	0.6326799331537778	0.3895783608421745	0.3462601475964763	0.648786595021994	0.3350952577131797	0.22149023655707278	0.619732362293452	0.33441538010966665	0.20374561319933732	0.6379100456378382	0.33979945773382786	0.24700000206309217	0.6935100267056088	0.0813327399297961	0.45313958103973145	0.39589013881079593	0.05181154224031159	0.5146667249195139	0.6068825756471793	0.08542597651715117	0.30804940211410337	0.5938740233861813	0.14926002615234585	0.24181065430390813	0.5758221877829655	0.13248474077758532	0.198815014696947	0.5751569691840358	0.10660254056881684	0.24716008669235118	0.6223184630011803
193	3.216666666666667	0.3098070448747088	0.558611701508372	0.8416947585941905	0.3018641180808621	0.7047250100286857	1.2699382264294676	0.3060147230577653	0.8144921650794952	1.6521252126747716	0.3142739404388349	0.72464362604846	1.7283991441157596	0.3819890370441283	0.7328378160660219	1.7187021040074282	0.2698154362869051	0.92492471067198	1.722732535346839	0.12415554570494844	0.5392708098488606	0.8431296742024098	0.10010422260780034	0.7268098400700014	1.2635292799581548	0.08618903696543312	0.859708850391589	1.6772070298427337	0.14366321776210556	0.6647511287817568	1.7012250731456784	0.08088760124497262	0.7088465426316295	1.7220939289417352	0.06903943317984367	0.9549485866495346	1.745979398153356	0.22549692591688997	0.4032034917645198	0.318699288544373	0.23706248510855238	0.3107720532170516	0.10542404205061169	0.24968500387811787	0.2684483968772601	0.23751706833490577	0.366360958040011	0.48705598709458486	0.3831902167529135	0.4082228008978678	0.5541769169066886	0.6301914461496491	0.3896800766219485	0.34650493532848586	0.6599221549578466	0.3295046449016028	0.22131810483144276	0.6372073446543504	0.3300208525851636	0.19611578965546866	0.6594219497716741	0.3406740251009815	0.24953619110985076	0.7127685982933112	0.08144915376553064	0.45325234455764873	0.3958716626622998	0.053254929130023484	0.5244704392313199	0.6058805081402584	0.08473977684480694	0.3113428897387438	0.6093518518338947	0.1514393592984637	0.23540427287505494	0.595731840506686	0.13146449976677974	0.19533863751266686	0.5986095904618189	0.11228839551212899	0.23885234303666475	0.6476624414394108
194	3.2333333333333334	0.3112810559095259	0.5544657029684614	0.8451711512631261	0.30191722272344945	0.7049812792455594	1.2704058561322842	0.3060437625032845	0.8149883295170088	1.6521579563496935	0.3143144102647001	0.7245203860014393	1.7284170643768724	0.3819739645249387	0.7314147719601497	1.7181970755956315	0.2702499334448497	0.9295805979180753	1.7266400956332533	0.12642473826801867	0.5409149004407234	0.8465367790464939	0.10009973851325668	0.7266767627354797	1.263377400952563	0.08637920049075432	0.8612510916505924	1.6770574994808003	0.1421307984739371	0.6708166441474117	1.7061003537577895	0.08085194095115672	0.7088061287909183	1.7220223345103391	0.06630387916969457	0.9597403399497932	1.7478133843843722	0.2257659206873986	0.40314370767166796	0.318164245922647	0.23723024308235682	0.3175017856026866	0.10146451531828679	0.2496039781502113	0.27122872424047795	0.2355798168235531	0.36634807455285867	0.4869503506386577	0.38306223012034585	0.4098435310076678	0.5504456089127099	0.6272389937927906	0.3893409842983775	0.3476731133304498	0.6734247483791719	0.319967820036987	0.2197672262664718	0.6583932428538869	0.3241997365265173	0.18728433410897924	0.6825591772406244	0.34246162210262915	0.254067960165407	0.7317952132173576	0.08163643089578232	0.45312662305610524	0.3958765588221517	0.05575990443768877	0.5299656115406332	0.6049362807356407	0.08482721864580958	0.312773457829019	0.6245356267993898	0.15237778278262004	0.2281136974608576	0.6134484927597212	0.13105594450491292	0.18705117576477778	0.6218002437820211	0.11806822557836824	0.23310920693693865	0.6743545344135953
195	3.25	0.3121440904538714	0.5510184352005909	0.8477672412867128	0.30196510557878187	0.7048626525837955	1.2707276710811373	0.30608694530749975	0.8152216702492678	1.6522218660890564	0.31428489790976205	0.7244650679165017	1.7283683268075989	0.3813707872555531	0.727283751112012	1.7167762071852921	0.271277089256127	0.9352826006475332	1.7295130208932454	0.12909677956829343	0.5469264520396641	0.850005399567806	0.10015207809379895	0.7270352560296272	1.2644367848676545	0.08651513762272908	0.8636931269983753	1.6760424906857003	0.1406286437743406	0.675496220068762	1.7100062305364185	0.08079450700122809	0.7089191026422454	1.7220485897821551	0.06419061769759588	0.9661408514500498	1.750277217737195	0.2260605039689176	0.4046688374318344	0.3182159140208821	0.23732967380098166	0.3243762093810982	0.09803279615149615	0.24784346277176528	0.2760072399949276	0.23388503187163456	0.36634091354049947	0.4869576348478772	0.3829502846846752	0.41143687983695276	0.5475119064351388	0.6252101134161514	0.3875504875119172	0.34827344566558305	0.6887780410347716	0.3103168971561519	0.21508775008112332	0.6835050775105205	0.31897160666170693	0.1820917617415877	0.7069140077575112	0.3444603289193369	0.25874731260835726	0.7513916913165656	0.08170610963098923	0.45307090817489354	0.3958851221565507	0.05881673314130755	0.5316247493710107	0.6056459495961244	0.08560167342379721	0.3135557940853683	0.6391347507176242	0.1538543602140963	0.22178606345704333	0.6325593429591161	0.13089112688043328	0.17540489406203444	0.6449469976798651	0.12006567674795235	0.23348929556548834	0.6994337316126557
196	3.2666666666666666	0.3129850768532463	0.5498219658804643	0.8489752236851726	0.30207843738455037	0.7045228962696747	1.2714023743333827	0.30610107451959734	0.8151672601278845	1.6526893242575122	0.31420928014727034	0.7245103389923198	1.7282722574959517	0.3805437778761642	0.7222189589727278	1.7150032888789377	0.272043614504718	0.939304094982382	1.7298803836676466	0.1302027136707446	0.5541653864268976	0.8530197440415586	0.10020365751957346	0.7276433886244715	1.2674391775596472	0.08654475119173315	0.8650383450536652	1.674908902900464	0.1399868959846801	0.6769870812174834	1.711390676155739	0.08081349902773445	0.709166094117839	1.722154905469138	0.06324720548027976	0.9713074461114398	1.7522754232319784	0.22640723436129265	0.40816010318444057	0.31843507109708513	0.2372928975210033	0.3286303670552587	0.09616888933245427	0.24471462183217255	0.28240854881530264	0.23256941796708264	0.3663155604814126	0.48710049504053465	0.3828854456549582	0.41242448237318324	0.5465533252819186	0.6248949923699321	0.3839270926119535	0.34718316048539105	0.7049503690165743	0.3045953416040874	0.20804803459815902	0.7124289122606564	0.31638322509942446	0.18276938113279922	0.7331773798249549	0.34648779771769406	0.26258380701913203	0.7718556677732767	0.08167999410138359	0.4530583532205157	0.395895562411993	0.061063580842928414	0.5318332766811755	0.6089549292916299	0.08727192436769106	0.3140658853635909	0.6537244162269439	0.1568517580150164	0.219853044350329	0.6577040407647141	0.13083596251588953	0.16557272328280367	0.6691845917488488	0.11836912911146777	0.23744203300156977	0.7222515587116309
197	3.283333333333333	0.31430813471134983	0.5516884735213483	0.8485859238030086	0.3022458875758015	0.7041938576057734	1.2723651295550442	0.30610582376355194	0.8150569146951652	1.6539137449224572	0.3141385170645997	0.7245853309743964	1.7282102030858104	0.37992312463803746	0.7186416707358667	1.71371557853093	0.27211734226775686	0.9408840534633075	1.728823109208495	0.12879120714668402	0.5608532180491407	0.8547631673100466	0.10024750928756793	0.7286250858231553	1.2718420567196878	0.08655590700572532	0.8637398417385862	1.673672738723953	0.1405100342148199	0.6752418749210415	1.7102571082149376	0.08096038793779715	0.7094591399401633	1.7223004642369033	0.06307548397230772	0.9738139968379997	1.7532448363041535	0.22688250968066026	0.41239913179856247	0.31796181386784284	0.2371888449244208	0.3299983604736221	0.09568593440658033	0.24192629156665513	0.28966157982557705	0.23162886611259917	0.3662745906500269	0.4872944564143518	0.38286304393417553	0.4126931268746098	0.5470289901633841	0.6265919148078972	0.37913358702144395	0.34331217815653053	0.7213409497251531	0.3009893211331862	0.20358765190193157	0.7431873960647464	0.31627114649335064	0.18638459417833336	0.7602163845821717	0.348438870778915	0.26579258553030394	0.7937387999689358	0.08161918671391791	0.45298191698915824	0.3959180924120087	0.062130524652642787	0.5311356703130348	0.6138024831095505	0.0897172133948346	0.3140731529672114	0.6694248244983036	0.16051168230731339	0.22282974922107804	0.6883414824656287	0.13116267182532415	0.16235015823657484	0.6953985614182807	0.11457553999098191	0.24152251281195597	0.7449514718590123
